<?xml version="1.0" encoding="UTF-8" standalone="no" ?>
<!DOCTYPE svg PUBLIC "-//W3C//DTD SVG 1.1//EN" "http://www.w3.org/Graphics/SVG/1.1/DTD/svg11.dtd">
<svg xmlns="http://www.w3.org/2000/svg" xmlns:xlink="http://www.w3.org/1999/xlink" version="1.1" width="400" height="400" viewBox="0 0 400 400" xml:space="preserve">
<desc>Created with Fabric.js 3.6.2</desc>
<defs>
</defs>
<g transform="matrix(4.17 0 0 4.17 200 195.83)" id="Layer_1"  >
<path style="stroke: none; stroke-width: 1; stroke-dasharray: none; stroke-linecap: butt; stroke-dashoffset: 0; stroke-linejoin: miter; stroke-miterlimit: 4; fill: rgb(255,61,0); fill-rule: nonzero; opacity: 1;"  transform=" translate(-24, -23)" d="M 44 23 c 0 10.5 -9 19 -20 19 S 4 33.5 4 23 S 13 4 24 4 S 44 12.5 44 23 z" stroke-linecap="round" />
</g>
<g transform="matrix(4.17 0 0 4.17 200 238.54)" id="Layer_1"  >
<path style="stroke: none; stroke-width: 1; stroke-dasharray: none; stroke-linecap: butt; stroke-dashoffset: 0; stroke-linejoin: miter; stroke-miterlimit: 4; fill: rgb(221,44,0); fill-rule: nonzero; opacity: 1;"  transform=" translate(-24, -33.25)" d="M 24 39 C 13.7 39 4.3 32.2 4 22.5 c 0 0.8 0 1.7 0 2.5 c 0 10.5 9 19 20 19 s 20 -8.5 20 -19 c 0 -0.6 0 -1.2 0 -1.8 C 43.9 33 34.5 39 24 39 z" stroke-linecap="round" />
</g>
<g transform="matrix(4.17 0 0 4.17 156.25 177.08)" id="Layer_1"  >
<path style="stroke: none; stroke-width: 1; stroke-dasharray: none; stroke-linecap: butt; stroke-dashoffset: 0; stroke-linejoin: miter; stroke-miterlimit: 4; fill: rgb(207,216,220); fill-rule: nonzero; opacity: 1;"  transform=" translate(-13.5, -18.5)" d="M 15 18.5 c 0 0.8 -0.7 1.5 -1.5 1.5 S 12 19.3 12 18.5 s 0.7 -1.5 1.5 -1.5 S 15 17.7 15 18.5 z" stroke-linecap="round" />
</g>
<g transform="matrix(4.17 0 0 4.17 152.08 185.42)" id="Layer_1"  >
<path style="stroke: none; stroke-width: 1; stroke-dasharray: none; stroke-linecap: butt; stroke-dashoffset: 0; stroke-linejoin: miter; stroke-miterlimit: 4; fill: rgb(207,216,220); fill-rule: nonzero; opacity: 1;"  transform=" translate(-12.5, -20.5)" d="M 14 20.5 c 0 0.8 -0.7 1.5 -1.5 1.5 S 11 21.3 11 20.5 s 0.7 -1.5 1.5 -1.5 S 14 19.7 14 20.5 z" stroke-linecap="round" />
</g>
<g transform="matrix(1.55 -3.87 3.87 1.55 197.94 199.14)" id="Layer_1"  >
<rect style="stroke: none; stroke-width: 1; stroke-dasharray: none; stroke-linecap: butt; stroke-dashoffset: 0; stroke-linejoin: miter; stroke-miterlimit: 4; fill: rgb(207,216,220); fill-rule: nonzero; opacity: 1;"  x="-1" y="-11.3" rx="0" ry="0" width="2" height="22.6" />
</g>
<g transform="matrix(4.17 0 0 4.17 243.75 214.58)" id="Layer_1"  >
<path style="stroke: none; stroke-width: 1; stroke-dasharray: none; stroke-linecap: butt; stroke-dashoffset: 0; stroke-linejoin: miter; stroke-miterlimit: 4; fill: rgb(207,216,220); fill-rule: nonzero; opacity: 1;"  transform=" translate(-34.5, -27.5)" d="M 36 27.5 c 0 0.8 -0.7 1.5 -1.5 1.5 S 33 28.3 33 27.5 s 0.7 -1.5 1.5 -1.5 S 36 26.7 36 27.5 z" stroke-linecap="round" />
</g>
<g transform="matrix(4.17 0 0 4.17 239.58 222.92)" id="Layer_1"  >
<path style="stroke: none; stroke-width: 1; stroke-dasharray: none; stroke-linecap: butt; stroke-dashoffset: 0; stroke-linejoin: miter; stroke-miterlimit: 4; fill: rgb(207,216,220); fill-rule: nonzero; opacity: 1;"  transform=" translate(-33.5, -29.5)" d="M 35 29.5 c 0 0.8 -0.7 1.5 -1.5 1.5 S 32 30.3 32 29.5 s 0.7 -1.5 1.5 -1.5 S 35 28.7 35 29.5 z" stroke-linecap="round" />
</g>
<g transform="matrix(4.17 0 0 4.17 243.75 177.08)" id="Layer_1"  >
<path style="stroke: none; stroke-width: 1; stroke-dasharray: none; stroke-linecap: butt; stroke-dashoffset: 0; stroke-linejoin: miter; stroke-miterlimit: 4; fill: rgb(207,216,220); fill-rule: nonzero; opacity: 1;"  transform=" translate(-34.5, -18.5)" d="M 36 18.5 c 0 0.8 -0.7 1.5 -1.5 1.5 S 33 19.3 33 18.5 s 0.7 -1.5 1.5 -1.5 S 36 17.7 36 18.5 z" stroke-linecap="round" />
</g>
<g transform="matrix(4.17 0 0 4.17 247.92 185.42)" id="Layer_1"  >
<path style="stroke: none; stroke-width: 1; stroke-dasharray: none; stroke-linecap: butt; stroke-dashoffset: 0; stroke-linejoin: miter; stroke-miterlimit: 4; fill: rgb(207,216,220); fill-rule: nonzero; opacity: 1;"  transform=" translate(-35.5, -20.5)" d="M 37 20.5 c 0 0.8 -0.7 1.5 -1.5 1.5 S 34 21.3 34 20.5 s 0.7 -1.5 1.5 -1.5 S 37 19.7 37 20.5 z" stroke-linecap="round" />
</g>
<g transform="matrix(3.87 -1.55 1.55 3.87 202.1 199.17)" id="Layer_1"  >
<rect style="stroke: none; stroke-width: 1; stroke-dasharray: none; stroke-linecap: butt; stroke-dashoffset: 0; stroke-linejoin: miter; stroke-miterlimit: 4; fill: rgb(207,216,220); fill-rule: nonzero; opacity: 1;"  x="-11.3" y="-1" rx="0" ry="0" width="22.6" height="2" />
</g>
<g transform="matrix(4.17 0 0 4.17 156.25 214.58)" id="Layer_1"  >
<path style="stroke: none; stroke-width: 1; stroke-dasharray: none; stroke-linecap: butt; stroke-dashoffset: 0; stroke-linejoin: miter; stroke-miterlimit: 4; fill: rgb(207,216,220); fill-rule: nonzero; opacity: 1;"  transform=" translate(-13.5, -27.5)" d="M 15 27.5 c 0 0.8 -0.7 1.5 -1.5 1.5 S 12 28.3 12 27.5 s 0.7 -1.5 1.5 -1.5 S 15 26.7 15 27.5 z" stroke-linecap="round" />
</g>
<g transform="matrix(4.17 0 0 4.17 160.42 222.92)" id="Layer_1"  >
<path style="stroke: none; stroke-width: 1; stroke-dasharray: none; stroke-linecap: butt; stroke-dashoffset: 0; stroke-linejoin: miter; stroke-miterlimit: 4; fill: rgb(207,216,220); fill-rule: nonzero; opacity: 1;"  transform=" translate(-14.5, -29.5)" d="M 16 29.5 c 0 0.8 -0.7 1.5 -1.5 1.5 S 13 30.3 13 29.5 s 0.7 -1.5 1.5 -1.5 S 16 28.7 16 29.5 z" stroke-linecap="round" />
</g>
<g transform="matrix(4.17 0 0 4.17 200 179.19)" id="Layer_1"  >
<path style="stroke: none; stroke-width: 1; stroke-dasharray: none; stroke-linecap: butt; stroke-dashoffset: 0; stroke-linejoin: miter; stroke-miterlimit: 4; fill: rgb(255,255,255); fill-rule: nonzero; opacity: 1;"  transform=" translate(-24, -19)" d="M 31 21 c 0 4.4 -3.1 4 -7 4 s -7 0.4 -7 -4 s 3.1 -8 7 -8 S 31 16.6 31 21 z" stroke-linecap="round" />
</g>
<g transform="matrix(4.17 0 0 4.17 200 206.25)" id="Layer_1"  >
<path style="stroke: none; stroke-width: 1; stroke-dasharray: none; stroke-linecap: butt; stroke-dashoffset: 0; stroke-linejoin: miter; stroke-miterlimit: 4; fill: rgb(255,255,255); fill-rule: nonzero; opacity: 1;"  transform=" translate(-24, -25.5)" d="M 28 26 c 0 1.7 -1.3 3 -3 3 h -2 c -1.7 0 -3 -1.3 -3 -3 v -1 c 0 -1.7 1.3 -3 3 -3 h 2 c 1.7 0 3 1.3 3 3 V 26 z" stroke-linecap="round" />
</g>
<g transform="matrix(4.17 0 0 4.17 200 196.39)" id="Layer_1"  >
<path style="stroke: none; stroke-width: 1; stroke-dasharray: none; stroke-linecap: butt; stroke-dashoffset: 0; stroke-linejoin: miter; stroke-miterlimit: 4; fill: rgb(69,90,100); fill-rule: nonzero; opacity: 1;"  transform=" translate(-24, -23.13)" d="M 25 24 c 0 0.6 -0.4 0 -1 0 s -1 0.6 -1 0 s 0.4 -2 1 -2 S 25 23.4 25 24 z" stroke-linecap="round" />
</g>
<g transform="matrix(4.17 0 0 4.17 212.5 183.33)" id="Layer_1"  >
<path style="stroke: none; stroke-width: 1; stroke-dasharray: none; stroke-linecap: butt; stroke-dashoffset: 0; stroke-linejoin: miter; stroke-miterlimit: 4; fill: rgb(69,90,100); fill-rule: nonzero; opacity: 1;"  transform=" translate(-27, -20)" d="M 29 19 c 0 1.1 -0.9 3 -2 3 s -2 -0.9 -2 -2 s 0.9 -2 2 -2 S 29 17.9 29 19 z" stroke-linecap="round" />
</g>
<g transform="matrix(4.17 0 0 4.17 187.5 183.33)" id="Layer_1"  >
<path style="stroke: none; stroke-width: 1; stroke-dasharray: none; stroke-linecap: butt; stroke-dashoffset: 0; stroke-linejoin: miter; stroke-miterlimit: 4; fill: rgb(69,90,100); fill-rule: nonzero; opacity: 1;"  transform=" translate(-21, -20)" d="M 19 19 c 0 1.1 0.9 3 2 3 s 2 -0.9 2 -2 s -0.9 -2 -2 -2 S 19 17.9 19 19 z" stroke-linecap="round" />
</g>
</svg>